HIERARCHY
ROOT Hips
{
  OFFSET 0 0.240689 0
  CHANNELS 6 Xposition Yposition Zposition Zrotation Xrotation Yrotation
  JOINT Bip01_Spine0
  {
    OFFSET 0 -24.7459 49.7988
    CHANNELS 6 Xposition Yposition Zposition Zrotation Xrotation Yrotation
    JOINT Bip01_Pelvis
    {
      OFFSET 0 0 0
      CHANNELS 6 Xposition Yposition Zposition Zrotation Xrotation Yrotation
      JOINT Bip01_Spine0_Tail
      {
        OFFSET -6.47486 -3.86022 0
        CHANNELS 6 Xposition Yposition Zposition Zrotation Xrotation Yrotation
        JOINT Bip01_Spine0_Tail1
        {
          OFFSET 10.3837 -0.00825882 0
          CHANNELS 6 Xposition Yposition Zposition Zrotation Xrotation Yrotation
          JOINT Bip01_Spine0_Tail2
          {
            OFFSET 10.3837 -0.00826263 0
            CHANNELS 6 Xposition Yposition Zposition Zrotation Xrotation Yrotation
            JOINT Bip01_Spine0_Tail3
            {
              OFFSET 10.3837 -0.00825882 0
              CHANNELS 6 Xposition Yposition Zposition Zrotation Xrotation Yrotation
              JOINT Bip01_Spine0_Tail4
              {
                OFFSET 10.3837 -0.00826263 0
                CHANNELS 6 Xposition Yposition Zposition Zrotation Xrotation Yrotation
                End Site
                {
                  OFFSET 0 0 0
                }
              }
            }
          }
        }
      }
      JOINT Bip01_R_Thigh
      {
        OFFSET 0 -1.52588e-005 -8.75617
        CHANNELS 6 Xposition Yposition Zposition Zrotation Xrotation Yrotation
        JOINT Bip01_R_Calf
        {
          OFFSET 19.7638 0 0
          CHANNELS 6 Xposition Yposition Zposition Zrotation Xrotation Yrotation
          JOINT Bip01_R_Foot
          {
            OFFSET 18.6534 0 0
            CHANNELS 6 Xposition Yposition Zposition Zrotation Xrotation Yrotation
            JOINT Bip01_R_Toe0
            {
              OFFSET 5.09145 13.9567 0
              CHANNELS 6 Xposition Yposition Zposition Zrotation Xrotation Yrotation
              JOINT Bip01_R_Toe01
              {
                OFFSET 4.28803 0 0
                CHANNELS 6 Xposition Yposition Zposition Zrotation Xrotation Yrotation
                JOINT Bip01_R_Toe02
                {
                  OFFSET 3.85801 0 0
                  CHANNELS 6 Xposition Yposition Zposition Zrotation Xrotation Yrotation
                  End Site
                  {
                    OFFSET 0 0 0
                  }
                }
              }
            }
          }
        }
      }
      JOINT Bip01_L_Thigh
      {
        OFFSET 0 1.52588e-005 8.75617
        CHANNELS 6 Xposition Yposition Zposition Zrotation Xrotation Yrotation
        JOINT Bip01_L_Calf
        {
          OFFSET 19.7638 0 0
          CHANNELS 6 Xposition Yposition Zposition Zrotation Xrotation Yrotation
          JOINT Bip01_L_Foot
          {
            OFFSET 18.6534 0 0
            CHANNELS 6 Xposition Yposition Zposition Zrotation Xrotation Yrotation
            JOINT Bip01_L_Toe0
            {
              OFFSET 5.09144 13.9567 0
              CHANNELS 6 Xposition Yposition Zposition Zrotation Xrotation Yrotation
              JOINT Bip01_L_Toe01
              {
                OFFSET 4.28802 0 0
                CHANNELS 6 Xposition Yposition Zposition Zrotation Xrotation Yrotation
                JOINT Bip01_L_Toe02
                {
                  OFFSET 3.85801 0 0
                  CHANNELS 6 Xposition Yposition Zposition Zrotation Xrotation Yrotation
                  End Site
                  {
                    OFFSET 0 0 0
                  }
                }
              }
            }
          }
        }
      }
      JOINT Bip01_Spine
      {
        OFFSET 9.14835 -0.00640869 -1.1e-005
        CHANNELS 6 Xposition Yposition Zposition Zrotation Xrotation Yrotation
        JOINT Bip01_Spine1
        {
          OFFSET 8.04366 -0.00638199 0
          CHANNELS 6 Xposition Yposition Zposition Zrotation Xrotation Yrotation
          JOINT Bip01_Spine2
          {
            OFFSET 8.04367 -0.00639343 0
            CHANNELS 6 Xposition Yposition Zposition Zrotation Xrotation Yrotation
            JOINT Bip01_Spine3
            {
              OFFSET 8.04304 -0.00831222 0
              CHANNELS 6 Xposition Yposition Zposition Zrotation Xrotation Yrotation
              JOINT Bip01_Neck
              {
                OFFSET 10.6685 1.06813 0
                CHANNELS 6 Xposition Yposition Zposition Zrotation Xrotation Yrotation
                JOINT Bip01_R_Clavicle
                {
                  OFFSET -3.21661 -4.89635 -9.04802
                  CHANNELS 6 Xposition Yposition Zposition Zrotation Xrotation Yrotation
                  JOINT Bip01_R_UpperArm
                  {
                    OFFSET 19.0492 0 0
                    CHANNELS 6 Xposition Yposition Zposition Zrotation Xrotation Yrotation
                    JOINT Bip01_R_Forearm
                    {
                      OFFSET 10.3706 0 0
                      CHANNELS 6 Xposition Yposition Zposition Zrotation Xrotation Yrotation
                      JOINT Bip01_R_Hand
                      {
                        OFFSET 22.8632 0 0
                        CHANNELS 6 Xposition Yposition Zposition Zrotation Xrotation Yrotation
                        JOINT Bip01_R_Finger0
                        {
                          OFFSET 6.48259 0.103651 0.504496
                          CHANNELS 6 Xposition Yposition Zposition Zrotation Xrotation Yrotation
                          JOINT Bip01_R_Finger01
                          {
                            OFFSET 3.66847 0 0
                            CHANNELS 6 Xposition Yposition Zposition Zrotation Xrotation Yrotation
                            End Site
                            {
                              OFFSET 0 0 0
                            }
                          }
                        }
                      }
                    }
                  }
                }
                JOINT Bip01_L_Clavicle
                {
                  OFFSET -3.21661 -4.89641 9.04797
                  CHANNELS 6 Xposition Yposition Zposition Zrotation Xrotation Yrotation
                  JOINT Bip01_L_UpperArm
                  {
                    OFFSET 19.0492 0 0
                    CHANNELS 6 Xposition Yposition Zposition Zrotation Xrotation Yrotation
                    JOINT Bip01_L_Forearm
                    {
                      OFFSET 10.3706 0 0
                      CHANNELS 6 Xposition Yposition Zposition Zrotation Xrotation Yrotation
                      JOINT Bip01_L_Hand
                      {
                        OFFSET 22.8631 0 0
                        CHANNELS 6 Xposition Yposition Zposition Zrotation Xrotation Yrotation
                        JOINT Bip01_L_Finger0
                        {
                          OFFSET 6.48257 0.103655 -0.504492
                          CHANNELS 6 Xposition Yposition Zposition Zrotation Xrotation Yrotation
                          JOINT Bip01_L_Finger01
                          {
                            OFFSET 3.66844 0 0
                            CHANNELS 6 Xposition Yposition Zposition Zrotation Xrotation Yrotation
                            End Site
                            {
                              OFFSET 0 0 0
                            }
                          }
                        }
                      }
                    }
                  }
                }
                JOINT Bip01_Neck1
                {
                  OFFSET 7.52459 -0.00656509 0
                  CHANNELS 6 Xposition Yposition Zposition Zrotation Xrotation Yrotation
                  JOINT Bip01_Neck2
                  {
                    OFFSET 8.4783 -0.00588226 0
                    CHANNELS 6 Xposition Yposition Zposition Zrotation Xrotation Yrotation
                    JOINT Bip01_Head
                    {
                      OFFSET 8.41606 0 0
                      CHANNELS 6 Xposition Yposition Zposition Zrotation Xrotation Yrotation
                      JOINT EyesBlue
                      {
                        OFFSET 0 0 0
                        CHANNELS 6 Xposition Yposition Zposition Zrotation Xrotation Yrotation
                        JOINT EyesBlue_2
                        {
                          OFFSET 0 -0.500007 0
                          CHANNELS 6 Xposition Yposition Zposition Zrotation Xrotation Yrotation
                          End Site
                          {
                            OFFSET 0 0 0
                          }
                        }
                      }
                      JOINT Bip01_Head2_Eyeleds
                      {
                        OFFSET 6.52751 7.61746 2.2e-005
                        CHANNELS 6 Xposition Yposition Zposition Zrotation Xrotation Yrotation
                        End Site
                        {
                          OFFSET 0 0 0
                        }
                      }
                      JOINT Bip01_Head_Muzzle
                      {
                        OFFSET 2.88628 13.9448 3.88994
                        CHANNELS 6 Xposition Yposition Zposition Zrotation Xrotation Yrotation
                        End Site
                        {
                          OFFSET 0 0 0
                        }
                      }
                      JOINT Bip01_Head1_Jaw
                      {
                        OFFSET 0.271065 1.32405 0
                        CHANNELS 6 Xposition Yposition Zposition Zrotation Xrotation Yrotation
                        JOINT _Bip01_Head11_TungeControler
                        {
                          OFFSET 4.61616 5.82872 0
                          CHANNELS 6 Xposition Yposition Zposition Zrotation Xrotation Yrotation
                          JOINT _Bip01_Ponytail3_tunge
                          {
                            OFFSET 5.17785 2.98805 0
                            CHANNELS 6 Xposition Yposition Zposition Zrotation Xrotation Yrotation
                            JOINT Bip01_Ponytail31
                            {
                              OFFSET 5.57569 0 0
                              CHANNELS 6 Xposition Yposition Zposition Zrotation Xrotation Yrotation
                              JOINT Bip01_Ponytail32
                              {
                                OFFSET 2.93165 0 0
                                CHANNELS 6 Xposition Yposition Zposition Zrotation Xrotation Yrotation
                                JOINT Bip01_Ponytail3Nub
                                {
                                  OFFSET 3.30155 0 0
                                  CHANNELS 6 Xposition Yposition Zposition Zrotation Xrotation Yrotation
                                  End Site
                                  {
                                    OFFSET 0 0 0
                                  }
                                }
                              }
                            }
                          }
                        }
                        JOINT Bip01_Head_JawNub
                        {
                          OFFSET 15.5776 -0.000389099 0
                          CHANNELS 6 Xposition Yposition Zposition Zrotation Xrotation Yrotation
                          End Site
                          {
                            OFFSET 0 0 0
                          }
                        }
                      }
                      JOINT Bip01_Ponytail2
                      {
                        OFFSET 9.40334 1.03973 -6.51764
                        CHANNELS 6 Xposition Yposition Zposition Zrotation Xrotation Yrotation
                        JOINT Bip01_Ponytail21
                        {
                          OFFSET 2.77018 -0.00640106 1.33514e-005
                          CHANNELS 6 Xposition Yposition Zposition Zrotation Xrotation Yrotation
                          End Site
                          {
                            OFFSET 0 0 0
                          }
                        }
                      }
                      JOINT Bip01_Ponytail1
                      {
                        OFFSET 9.40368 1.03969 6.51768
                        CHANNELS 6 Xposition Yposition Zposition Zrotation Xrotation Yrotation
                        JOINT Bip01_Ponytail11
                        {
                          OFFSET 2.77018 -0.00640487 0
                          CHANNELS 6 Xposition Yposition Zposition Zrotation Xrotation Yrotation
                          End Site
                          {
                            OFFSET 0 0 0
                          }
                        }
                      }
                    }
                  }
                }
              }
            }
          }
        }
      }
    }
  }
}
MOTION
Frames:	4
Frame Time:	0.0333333
0 0 -1e-006 -0 -90 -0 -0.261996 -24.7453 50.4632 90 -3.50835e-015 90 0 0 0 -89.9994 -0.000673574 -93.9001 -6.45929 -3.86079 0.44028 133.256 2.84249 -2.6717 10.3793 -0.007175 -2.55351e-015 -29.7598 0.000231 0.000399 10.3834 -0.00827 -7.54952e-015 0.499496 0.001019 0.00101 10.3852 -0.008052 -1.36002e-014 13.132 0.001046 0.00083 10.3847 -0.008155 -3.33067e-015 9.58589 0.001435 0.001213 9e-006 -1.49996e-005 -8.75617 -97.4888 -11.9754 173.961 19.7638 1e-006 7.10543e-015 -60.8872 -0.0001396 -0.000567396 18.6534 3e-006 -5.32907e-015 -27.4936 1.40139 7.55437 5.09143 13.9567 -1.425e-006 114.819 3.10085 1.66778 4.28801 -3e-006 2.13163e-013 64.9991 0.00213881 0.000474956 3.858 -1.24345e-014 0 -45 -1.041e-005 -3.78903e-006 -1.7e-005 1.09996e-005 8.75617 -110.948 -4.43282 -179.209 19.7638 3.55271e-015 7.10543e-015 -63.6012 0.000721491 0.00307626 18.6534 3e-006 3.55271e-015 -25.5 1.14716 -5.71907 5.09144 13.9567 -8.61064e-008 114.999 0.000725928 4.99922 4.288 -1e-006 3.19744e-014 65 6.79096e-006 1.64453e-006 3.85799 -4.26325e-013 -3e-006 -45 -7.69966e-006 -1.75791e-005 9.12717 -0.006408 -0.622128 -0.000776873 0.00141309 3.90012 0 0 0 0.0475193 0.00179851 0.109084 8.04367 -0.006408 5.59631e-010 0.00146391 0.00147075 0.054248 8.04304 -0.008319 3.30006e-005 -4.29863 0.000131259 0.0551257 10.67 1.06797 9.99852e-007 0.69085 1.03033e-005 9.89649e-006 -4.30512 -3.97468 -9.04796 179.256 -85.4186 114.993 19.0492 1.77636e-015 0 89.745 8.41616 -103.465 10.3706 -3.55271e-015 4.44089e-015 -58.5377 0.000643752 0.00228288 22.8631 2e-006 -8.88179e-014 -16.6198 -0.17173 2.45015 6.48256 0.103651 0.504496 -78.3094 -0.300702 -15.494 3.66843 1.33227e-015 8.88179e-016 34.6071 5.92255e-005 -1.47935e-005 -4.30502 -3.97455 9.04798 179.26 85.4168 -114.996 19.0492 -3.55272e-015 1e-006 88.6324 -8.31407 99.4939 10.3706 3.55272e-015 -2.66453e-015 -58.5366 0.000151172 0.000535259 22.8631 -1e-006 -3.55271e-015 -16.4593 -8.55738 -2.45223 6.48256 0.103652 -0.504496 -75.9426 0.956686 15.4686 3.66843 1e-006 -2e-006 40.107 4.64315e-005 -3.08854e-005 7.52555 -0.006618 5.1e-005 -4.4852 0.00161409 0.00174603 8.47687 -0.006454 -1.97144e-011 15.6197 3.62723e-005 -1.17458e-005 8.41606 3e-006 -3.29181e-014 -74.0229 0.196473 -0.0885454 -3e-006 5e-006 -3e-006 -23.1098 1.37701e-015 90 -2.05218e-009 -0.5 -8.5997e-006 116.157 90 -26.1574 0 0 0 -113.553 1.52588e-005 -179.996 2.8863 13.9448 3.88993 -22.9892 1.37021e-015 90 0 0 0 -85.3358 0.000106812 -180 0 0 0 -120.289 -3.77475e-007 2.32497e-007 0 0 0 133.74 -6.70987e-007 -1.74606e-007 0 0 0 -0.168469 5.66919e-009 1.48163e-009 0 0 0 -22.6319 2.51234e-007 1.91722e-007 0 0 0 -26.1943 4.47228e-008 9.20908e-008 15.5776 -0.000392 -7e-006 3.18055e-015 -1.55301e-018 -7.76503e-019 9.40334 1.03972 -6.51764 -19.0868 17.2453 20.3009 2.77014 -0.006397 7.00052e-006 2.43523 0.00173049 0.00166102 9.40369 1.03968 6.51767 -19.0868 -17.2453 -20.3007 2.77019 -0.006389 8.9995e-006 2.43572 0.000800731 0.000767206 
0 0 -1e-006 -0 -90 -0 -0.261996 -24.7537 50.4616 90 -3.50835e-015 90 0 0 0 -89.9994 -0.000673574 -93.9001 -6.45929 -3.86079 0.44028 133.255 2.84249 -3.01782 10.3793 -0.007175 4.54614e-012 -29.76 7.81894e-006 -0.253895 10.3834 -0.00827 4.82436e-012 0.499496 -0.000912324 -0.220524 10.3852 -0.008052 9.16334e-012 13.132 0.000485284 -0.983377 10.3847 -0.008155 5.45286e-011 9.58549 0.000851347 -0.553122 9e-006 -1.49996e-005 -8.75617 -97.4888 -11.9754 173.961 19.7638 1e-006 8.88179e-015 -60.8872 -0.0001396 -0.000567396 18.6534 3e-006 -5.32907e-015 -27.4936 1.40139 7.55437 5.09143 13.9567 -1.425e-006 114.819 3.10085 1.66778 4.28801 -3e-006 2.20268e-013 64.9991 0.00213881 0.000474956 3.858 -1.33227e-014 3.55271e-015 -45 -1.041e-005 -3.78903e-006 -1.7e-005 1.09996e-005 8.75617 -110.948 -4.43282 -179.209 19.7638 1.77636e-015 5.32907e-015 -63.6012 0.000721491 0.00307626 18.6534 3e-006 1.77636e-015 -25.5 1.14716 -5.71907 5.09144 13.9567 -8.61064e-008 114.999 0.000725928 4.99922 4.288 -1e-006 3.19744e-014 65 6.79096e-006 1.64453e-006 3.85799 -4.24549e-013 -3e-006 -45 -7.69966e-006 -1.75791e-005 9.12717 -0.006408 -0.622128 0.0631763 0.00584143 3.955 0 0 0 0.0167086 0.00176494 0.0542035 8.04367 -0.006408 8.81545e-010 -0.0272666 0.00144221 0.0542487 8.04304 -0.008319 3.30008e-005 -4.32684 0.000102576 0.0551257 10.67 1.06797 9.99789e-007 0.69085 1.03026e-005 9.89653e-006 -4.30512 -3.97468 -9.04796 179.256 -85.4186 114.993 19.0492 0 -7.10543e-015 89.7445 8.39185 -103.463 10.3706 -7.10543e-015 5.32907e-015 -58.5377 0.000643752 0.00228288 22.8631 2e-006 -9.68115e-014 -16.6198 -0.17173 2.45015 6.48256 0.103651 0.504496 -78.3094 -0.300702 -15.494 3.66843 -8.4377e-015 1.77636e-015 34.6071 5.92394e-005 -1.48041e-005 -4.30502 -3.97455 9.04798 179.26 85.4168 -114.996 19.0492 -3.55272e-015 1e-006 88.6322 -8.29004 99.4923 10.3706 -3.55272e-015 -8.88178e-016 -58.5366 0.000151172 0.000535258 22.8631 -1e-006 -6.21725e-015 -16.4593 -8.55738 -2.45223 6.48256 0.103652 -0.504496 -75.9426 0.956686 15.4686 3.66843 1e-006 -2e-006 40.107 4.6434e-005 -3.08884e-005 7.52555 -0.006618 5.1e-005 -4.4852 0.00161409 0.00174603 8.47687 -0.006454 -1.94946e-011 15.6197 3.62752e-005 -1.17452e-005 8.41606 3e-006 -3.23075e-014 -74.0059 0.196095 0.567938 -3e-006 5e-006 -3e-006 -23.1098 1.37701e-015 90 -8.10825e-010 -0.5 -8.59964e-006 91.259 89.9995 -1.25899 0 0 0 -113.549 0.00193787 -180 2.8863 13.9448 3.88993 -22.9892 1.37021e-015 90 0 0 0 -85.3358 0.000106812 -180 0 0 0 -120.289 3.97413e-007 -1.65433e-007 0 0 0 133.74 2.83831e-007 2.17312e-007 0 0 0 -0.168469 6.41378e-009 -2.23097e-010 0 0 0 -22.6319 8.40732e-008 -3.16643e-008 0 0 0 -26.1943 -7.74289e-008 -7.06365e-008 15.5776 -0.000392 -7e-006 3.18055e-015 2.48481e-016 -0 9.40334 1.03972 -6.51764 -19.0868 17.2453 20.3009 2.77014 -0.006397 7.00051e-006 2.43523 0.00173048 0.00166102 9.40369 1.03968 6.51767 -19.0868 -17.2453 -20.3007 2.77019 -0.006389 8.99948e-006 2.43572 0.000800727 0.0007672 
0 0 -1e-006 -0 -90 -0 -0.261996 -24.762 50.46 90 -3.50835e-015 90 0 0 0 -89.9994 -0.000673574 -93.9001 -6.45929 -3.86079 0.44028 133.255 2.84238 -3.36394 10.3793 -0.007175 9.08179e-012 -29.7608 -0.000225949 -0.508162 10.3834 -0.00827 9.64151e-012 0.499461 -0.00284344 -0.442059 10.3852 -0.008052 1.83304e-011 13.132 -7.63398e-005 -1.96758 10.3847 -0.008155 1.08619e-010 9.58508 0.00026409 -1.10747 9e-006 -1.49996e-005 -8.75617 -97.4888 -11.9754 173.961 19.7638 1e-006 5.32907e-015 -60.8872 -0.0001396 -0.000567396 18.6534 3e-006 -3.55271e-015 -27.4936 1.40139 7.55437 5.09143 13.9567 -1.425e-006 114.819 3.10085 1.66778 4.28801 -3e-006 2.23821e-013 64.9991 0.00213881 0.000474956 3.858 -1.42109e-014 3.55271e-015 -45 -1.041e-005 -3.78903e-006 -1.7e-005 1.09996e-005 8.75617 -110.948 -4.43282 -179.209 19.7638 -1.77636e-015 5.32907e-015 -63.6012 0.000721491 0.00307626 18.6534 3e-006 0 -25.5 1.14716 -5.71907 5.09144 13.9567 -8.61064e-008 114.999 0.000725928 4.99922 4.288 -1e-006 3.19744e-014 65 6.79096e-006 1.64453e-006 3.85799 -4.24549e-013 -3e-006 -45 -7.69966e-006 -1.75791e-005 9.12717 -0.006408 -0.622128 0.0797206 0.00698486 3.955 0 0 0 0.0334289 0.0017821 0.054203 8.04367 -0.006408 9.86588e-010 -0.0560038 0.00141556 0.0542494 8.04304 -0.008319 3.3001e-005 -4.35506 7.39499e-005 0.0551256 10.67 1.06797 9.99728e-007 0.69085 1.03019e-005 9.89657e-006 -4.30512 -3.97468 -9.04796 179.256 -85.4186 114.993 19.0492 -1.77636e-015 3.55271e-015 89.744 8.36758 -103.462 10.3706 -7.10543e-015 6.21725e-015 -58.5377 0.000643752 0.00228289 22.8631 2e-006 -8.79297e-014 -16.6198 -0.17173 2.45015 6.48256 0.103651 0.504496 -78.3094 -0.300702 -15.494 3.66843 -1.02141e-014 2.66454e-015 34.6071 5.9253e-005 -1.48145e-005 -4.30502 -3.97455 9.04798 179.26 85.4168 -114.996 19.0492 -3.55272e-015 1e-006 88.6319 -8.26602 99.4907 10.3706 -1.06581e-014 -8.88178e-016 -58.5366 0.000151171 0.000535258 22.8631 -1e-006 3.55271e-015 -16.4593 -8.55738 -2.45223 6.48256 0.103652 -0.504496 -75.9426 0.956686 15.4686 3.66843 1e-006 -2e-006 40.107 4.64365e-005 -3.08913e-005 7.52555 -0.006618 5.1e-005 -4.4852 0.00161409 0.00174603 8.47687 -0.006454 -1.92728e-011 15.6197 3.62783e-005 -1.17447e-005 8.41606 3e-006 -3.59712e-014 -73.9888 0.195705 1.22441 -3e-006 5e-006 -3e-006 -23.1098 1.37701e-015 90 4.28313e-010 -0.5 -8.59958e-006 91.1393 89.9994 -1.13928 0 0 0 -113.549 0.000976563 -180 2.8863 13.9448 3.88993 -22.9892 1.37021e-015 90 0 0 0 -85.3358 0.000106812 -180 0 0 0 -120.289 1.16978e-006 -5.62695e-007 0 0 0 133.74 1.23643e-006 6.07691e-007 0 0 0 -0.168469 7.15552e-009 -1.92564e-009 0 0 0 -22.6319 -8.31161e-008 -2.54762e-007 0 0 0 -26.1943 -1.99475e-007 -2.33046e-007 15.5776 -0.000392 -7e-006 6.89673e-034 1.98785e-016 -1.98785e-016 9.40334 1.03972 -6.51764 -19.0868 17.2453 20.3009 2.77014 -0.006397 7.0005e-006 2.43523 0.00173048 0.00166101 9.40369 1.03968 6.51767 -19.0868 -17.2453 -20.3007 2.77019 -0.006389 8.99947e-006 2.43572 0.000800724 0.000767194 
0 0 -1e-006 -0 -90 -0 -0.261996 -24.7706 50.4584 90 -3.50835e-015 90 0 0 0 -89.9994 -0.000673574 -93.9001 -6.45929 -3.86079 0.44028 133.255 2.84223 -3.69878 10.3793 -0.007175 1.34657e-011 -29.7619 -0.000271851 -0.751088 10.3834 -0.00827 1.42379e-011 0.499449 -0.00452266 -0.634691 10.3852 -0.008052 2.66638e-011 13.132 -0.000785735 -2.85854 10.3847 -0.008155 1.56955e-010 9.58524 -0.000432269 -1.68394 9e-006 -1.49996e-005 -8.75617 -97.4888 -11.9754 173.961 19.7638 1e-006 1.06581e-014 -60.8872 -0.0001396 -0.000567396 18.6534 3e-006 -3.55271e-015 -27.4936 1.40139 7.55437 5.09143 13.9567 -1.425e-006 114.819 3.10085 1.66778 4.28801 -3e-006 2.16716e-013 64.9991 0.00213881 0.000474956 3.858 -1.33227e-014 3.55271e-015 -45 -1.041e-005 -3.78903e-006 -1.7e-005 1.09996e-005 8.75617 -110.948 -4.43282 -179.209 19.7638 -3.55271e-015 3.55271e-015 -63.6012 0.000721491 0.00307626 18.6534 3e-006 5.32907e-015 -25.5 1.14716 -5.71907 5.09144 13.9567 -8.61064e-008 114.999 0.000725928 4.99922 4.288 -1e-006 3.37508e-014 65 6.79096e-006 1.64453e-006 3.85799 -4.22773e-013 -3e-006 -45 -7.69966e-006 -1.75791e-005 9.12717 -0.006408 -0.622128 0.0960195 0.00811123 3.95499 0 0 0 0.0501765 0.00179838 0.0542025 8.04367 -0.006408 9.79615e-010 -0.0846048 0.00138996 0.0542501 8.04304 -0.008319 3.30012e-005 -4.38375 4.49183e-005 0.0551255 10.67 1.06797 9.99669e-007 0.69085 1.03011e-005 9.89661e-006 -4.30512 -3.97468 -9.04796 179.256 -85.4186 114.993 19.0492 -3.55271e-015 -1.77636e-014 89.7432 8.34362 -103.46 10.3706 1.42109e-014 -7.10543e-015 -58.5377 0.000643753 0.00228289 22.8631 2e-006 -8.08242e-014 -16.6198 -0.17173 2.45015 6.48256 0.103651 0.504496 -78.3094 -0.300702 -15.494 3.66843 2.75335e-014 0 34.6071 5.92652e-005 -1.48235e-005 -4.30502 -3.97455 9.04798 179.26 85.4168 -114.996 19.0492 -3.55272e-015 1e-006 88.631 -8.24205 99.4895 10.3706 3.55272e-015 1.77636e-015 -58.5366 0.000151171 0.000535257 22.8631 -1e-006 1.77636e-015 -16.4593 -8.55738 -2.45223 6.48256 0.103652 -0.504496 -75.9426 0.956686 15.4686 3.66843 1e-006 -2e-006 40.107 4.64369e-005 -3.08924e-005 7.52555 -0.006618 5.1e-005 -4.4852 0.00161409 0.00174603 8.47687 -0.006454 -1.90546e-011 15.6197 3.62815e-005 -1.17442e-005 8.41606 3e-006 -3.46945e-014 -73.9719 0.195371 1.86691 -3e-006 5e-006 -3e-006 -23.1098 1.37701e-015 90 1.63779e-009 -0.5 -8.59953e-006 91.3166 89.9995 -1.31656 0 0 0 -113.549 0.000671387 -180 2.8863 13.9448 3.88993 -22.9892 1.37021e-015 90 0 0 0 -85.3358 0.000106812 -180 0 0 0 -120.289 1.92169e-006 -9.503e-007 0 0 0 133.74 2.1644e-006 9.87365e-007 0 0 0 -0.168469 7.89729e-009 -3.58583e-009 0 0 0 -22.6319 -2.46052e-007 -4.72323e-007 0 0 0 -26.1943 -3.18678e-007 -3.91472e-007 15.5776 -0.000392 -6.99999e-006 -1.55176e-033 -4.47266e-016 -1.98785e-016 9.40334 1.03972 -6.51764 -19.0868 17.2453 20.3009 2.77014 -0.006397 7.00048e-006 2.43523 0.00173048 0.00166101 9.40369 1.03968 6.51767 -19.0868 -17.2453 -20.3007 2.77019 -0.006389 8.99945e-006 2.43572 0.00080072 0.000767188 
